<svg version="1.1" viewBox="0.0 0.0 96.0 96.0" fill="none" stroke="none" stroke-linecap="square" stroke-miterlimit="10" xmlns:xlink="http://www.w3.org/1999/xlink" xmlns="http://www.w3.org/2000/svg"><clipPath id="p.0"><path d="m0 0l96.0 0l0 96.0l-96.0 0l0 -96.0z" clip-rule="nonzero"/></clipPath><g clip-path="url(#p.0)"><path fill="#000000" fill-opacity="0.0" d="m0 0l96.0 0l0 96.0l-96.0 0z" fill-rule="evenodd"/><path fill="#6b47c1" d="m0 0l86.3937 0l0 86.3937l-86.3937 0z" fill-rule="evenodd"/><path fill="#3b0f89" d="m9.601035 9.6010475l86.4 0l0 86.399994l-86.4 0z" fill-rule="evenodd"/><path fill="#fcf8f7" d="m45.082798 27.746044l0 31.0q0 6.953129 -0.140625 8.953129q-0.140625 1.984375 -1.3125 3.59375q-1.15625 1.59375 -3.15625 2.21875q-1.984375 0.609375 -5.984375 0.609375l-6.046875 0l0 -8.109375q1.09375 0.09375 1.578125 0.09375q1.28125 0 2.03125 -0.625q0.75 -0.640625 0.859375 -1.5468788q0.109375 -0.921875 0.109375 -3.5625l0 -32.625l12.0625 0zm30.215305 14.046875l-11.203133 0l0 -3.4375q0 -2.40625 -0.4374962 -3.0625q-0.421875 -0.671875 -1.421875 -0.671875q-1.078125 0 -1.640625 0.890625q-0.5625 0.890625 -0.5625 2.6875q0 2.328125 0.625 3.5q0.609375 1.171875 3.4062462 2.84375q8.0625 4.78125 10.140633 7.84375q2.09375 3.0625 2.09375 9.875q0 4.953129 -1.15625 7.312504q-1.15625 2.34375 -4.4843826 3.9375q-3.328125 1.578125 -7.734371 1.578125q-4.84375 0 -8.265625 -1.828125q-3.421875 -1.828125 -4.484375 -4.65625q-1.046875 -2.84375 -1.046875 -8.062504l0 -3.03125l11.1875 0l0 5.640625q0 2.6093788 0.46875 3.3593788q0.484375 0.734375 1.6875 0.734375q1.203125 0 1.7812462 -0.9375q0.59375 -0.953125 0.59375 -2.8125038q0 -4.09375 -1.1249962 -5.359375q-1.140625 -1.25 -5.640625 -4.203125q-4.484375 -2.984375 -5.953125 -4.328125q-1.453125 -1.34375 -2.421875 -3.71875q-0.953125 -2.375 -0.953125 -6.078125q0 -5.328125 1.359375 -7.78125q1.359375 -2.46875 4.390625 -3.859375q3.046875 -1.390625 7.34375 -1.390625q4.687496 0 7.999996 1.515625q3.3125 1.515625 4.3750076 3.828125q1.078125 2.296875 1.078125 7.828125l0 1.84375z" fill-rule="nonzero"/></g></svg>